<svg width="55" height="45" viewBox="0 0 55 45" fill="none" xmlns="http://www.w3.org/2000/svg">
<path d="M43.1439 5.00337L48.8082 3.30408L52.2068 7.83553L47.3921 16.8984L40.0285 25.9614L41.1614 31.9089L44.56 40.9718H3.77686V33.8914L6.89223 27.0942L12.8398 21.1467L21.9027 14.6327L33.2313 7.83553L35.2138 9.53483L40.0285 7.83553L43.1439 5.00337Z" fill="#CAFF42"/>
<path d="M37.2048 9.41885C35.3841 9.41885 33.9082 7.94289 33.9082 6.1222C33.9082 4.30152 35.3841 2.82556 37.2048 2.82556C39.0255 2.82556 40.5015 4.30152 40.5015 6.1222C40.5015 7.94289 39.0255 9.41885 37.2048 9.41885Z" fill="white"/>
<path fill-rule="evenodd" clip-rule="evenodd" d="M51.9504 3.99224C53.4173 5.31137 54.3109 7.13186 54.4647 8.60671C54.5096 9.03766 54.4009 9.47057 54.1571 9.83192L42.5283 27.0674C41.4554 28.6577 41.277 30.6722 42.0543 32.4198L46.3095 41.9864C46.5675 42.5663 46.5098 43.2346 46.156 43.7638C45.8023 44.293 45.2002 44.6119 44.5546 44.6119H1.91599C0.858704 44.6119 0.00160477 43.772 0.00160477 42.7359C-0.00359914 42.0589 -0.0115298 40.942 0.250801 39.546C0.537706 38.0192 1.13951 35.856 2.37084 32.3964C4.98964 25.0385 10.0398 19.9952 16.5172 15.7637C16.5433 15.7467 16.5697 15.7303 16.5966 15.7146L32.3408 6.48801C32.4182 7.86348 33.2025 9.05003 34.3362 9.69028L18.6023 18.9108C12.5694 22.8588 8.23542 27.312 5.98605 33.632C5.01246 36.3674 4.47987 38.1694 4.18714 39.4208L12.8159 27.495C15.1304 24.2961 19.455 23.3038 22.9326 25.1737C25.7395 26.683 27.08 29.9724 26.1275 33.0137L23.67 40.86H33.8032L29.4768 31.1085C28.2651 28.3773 29.0539 25.1896 31.4077 23.3056L50.3783 8.12154C50.1658 7.6779 49.8304 7.17812 49.3616 6.75651C48.6172 6.08709 47.6156 5.67502 46.2371 6.01272C44.6898 6.39179 43.198 6.86342 41.7475 7.32194L41.7475 7.32195L41.7467 7.32219L41.7459 7.32247C41.3094 7.46045 40.8766 7.59725 40.4473 7.72998C40.2451 7.79246 40.0415 7.85485 39.837 7.91632C40.07 7.41381 40.2001 6.85381 40.2001 6.26342C40.2001 5.45427 39.9558 4.70218 39.5368 4.07694C39.8454 3.98071 40.1653 3.8795 40.4949 3.77525L40.4954 3.77511L40.4957 3.775L40.4958 3.77498C41.9644 3.31046 43.6234 2.78572 45.3085 2.37288C48.1069 1.68728 50.3965 2.59486 51.9504 3.99224ZM19.6039 40.86L22.4386 31.8584C22.8371 30.586 22.2763 29.2097 21.1019 28.5783C19.3302 27.6256 17.1268 28.1312 15.9476 29.761L8.06126 40.86H19.6039ZM44.0179 18.0568L33.8298 26.2113C32.8037 27.0326 32.4599 28.4221 32.9881 29.6126L37.9782 40.86H41.6318L38.5444 33.9189C37.2489 31.0062 37.5462 27.6487 39.3345 24.9982L44.0179 18.0568Z" fill="#1A1A1A"/>
<path fill-rule="evenodd" clip-rule="evenodd" d="M36.7277 8.38993C36.7203 8.39 36.7129 8.39004 36.7055 8.39004C35.4506 8.39004 34.4332 7.37269 34.4332 6.11773C34.4332 4.86278 35.4506 3.84543 36.7055 3.84543C37.4574 3.84543 38.1239 4.21058 38.5375 4.77322C38.3286 4.70099 38.1044 4.66177 37.8709 4.66177C36.7447 4.66177 35.8317 5.57477 35.8317 6.70101C35.8317 7.4036 36.187 8.0232 36.7277 8.38993ZM42.8232 6.11773C42.8232 9.49647 40.0842 12.2355 36.7055 12.2355C33.3268 12.2355 30.5878 9.49647 30.5878 6.11773C30.5878 2.739 33.3268 0 36.7055 0C40.0842 0 42.8232 2.739 42.8232 6.11773Z" fill="#1A1A1A"/>
</svg>
